<?xml version="1.0" encoding="UTF-8"?>
<svg xmlns="http://www.w3.org/2000/svg" xmlns:xlink="http://www.w3.org/1999/xlink" width="54pt" height="54pt" viewBox="0 0 54 54" version="1.1">
<defs>
<clipPath id="clip1">
  <path d="M 12.433594 44.40625 L 22.332031 44.40625 L 22.332031 53.796875 L 12.433594 53.796875 Z M 12.433594 44.40625 "/>
</clipPath>
<clipPath id="clip2">
  <path d="M 53.671875 26.835938 C 53.671875 41.65625 41.65625 53.671875 26.835938 53.671875 C 12.015625 53.671875 0 41.65625 0 26.835938 C 0 12.015625 12.015625 0 26.835938 0 C 41.65625 0 53.671875 12.015625 53.671875 26.835938 Z M 53.671875 26.835938 "/>
</clipPath>
<clipPath id="clip3">
  <path d="M 12.6875 52.527344 L 14.464844 52.527344 L 14.464844 53.796875 L 12.6875 53.796875 Z M 12.6875 52.527344 "/>
</clipPath>
<clipPath id="clip4">
  <path d="M 53.671875 26.835938 C 53.671875 41.65625 41.65625 53.671875 26.835938 53.671875 C 12.015625 53.671875 0 41.65625 0 26.835938 C 0 12.015625 12.015625 0 26.835938 0 C 41.65625 0 53.671875 12.015625 53.671875 26.835938 Z M 53.671875 26.835938 "/>
</clipPath>
<clipPath id="clip5">
  <path d="M 30.703125 42.125 L 40.601562 42.125 L 40.601562 53.796875 L 30.703125 53.796875 Z M 30.703125 42.125 "/>
</clipPath>
<clipPath id="clip6">
  <path d="M 53.671875 26.835938 C 53.671875 41.65625 41.65625 53.671875 26.835938 53.671875 C 12.015625 53.671875 0 41.65625 0 26.835938 C 0 12.015625 12.015625 0 26.835938 0 C 41.65625 0 53.671875 12.015625 53.671875 26.835938 Z M 53.671875 26.835938 "/>
</clipPath>
<clipPath id="clip7">
  <path d="M 14.210938 41.871094 L 40 41.871094 L 40 53.796875 L 14.210938 53.796875 Z M 14.210938 41.871094 "/>
</clipPath>
<clipPath id="clip8">
  <path d="M 53.671875 26.835938 C 53.671875 41.65625 41.65625 53.671875 26.835938 53.671875 C 12.015625 53.671875 0 41.65625 0 26.835938 C 0 12.015625 12.015625 0 26.835938 0 C 41.65625 0 53.671875 12.015625 53.671875 26.835938 Z M 53.671875 26.835938 "/>
</clipPath>
<clipPath id="clip9">
  <path d="M 23.347656 41.109375 L 30.703125 41.109375 L 30.703125 48.214844 L 23.347656 48.214844 Z M 23.347656 41.109375 "/>
</clipPath>
<clipPath id="clip10">
  <path d="M 53.671875 26.835938 C 53.671875 41.65625 41.65625 53.671875 26.835938 53.671875 C 12.015625 53.671875 0 41.65625 0 26.835938 C 0 12.015625 12.015625 0 26.835938 0 C 41.65625 0 53.671875 12.015625 53.671875 26.835938 Z M 53.671875 26.835938 "/>
</clipPath>
<clipPath id="clip11">
  <path d="M 24.105469 42.125 L 29.945312 42.125 L 29.945312 47.707031 L 24.105469 47.707031 Z M 24.105469 42.125 "/>
</clipPath>
<clipPath id="clip12">
  <path d="M 53.671875 26.835938 C 53.671875 41.65625 41.65625 53.671875 26.835938 53.671875 C 12.015625 53.671875 0 41.65625 0 26.835938 C 0 12.015625 12.015625 0 26.835938 0 C 41.65625 0 53.671875 12.015625 53.671875 26.835938 Z M 53.671875 26.835938 "/>
</clipPath>
<clipPath id="clip13">
  <path d="M 6.089844 26.390625 L 11.671875 26.390625 L 11.671875 32.226562 L 6.089844 32.226562 Z M 6.089844 26.390625 "/>
</clipPath>
<clipPath id="clip14">
  <path d="M 53.671875 26.835938 C 53.671875 41.65625 41.65625 53.671875 26.835938 53.671875 C 12.015625 53.671875 0 41.65625 0 26.835938 C 0 12.015625 12.015625 0 26.835938 0 C 41.65625 0 53.671875 12.015625 53.671875 26.835938 Z M 53.671875 26.835938 "/>
</clipPath>
<clipPath id="clip15">
  <path d="M 41.871094 26.390625 L 47.453125 26.390625 L 47.453125 32.226562 L 41.871094 32.226562 Z M 41.871094 26.390625 "/>
</clipPath>
<clipPath id="clip16">
  <path d="M 53.671875 26.835938 C 53.671875 41.65625 41.65625 53.671875 26.835938 53.671875 C 12.015625 53.671875 0 41.65625 0 26.835938 C 0 12.015625 12.015625 0 26.835938 0 C 41.65625 0 53.671875 12.015625 53.671875 26.835938 Z M 53.671875 26.835938 "/>
</clipPath>
<clipPath id="clip17">
  <path d="M 8.628906 16.242188 L 45.167969 16.242188 L 45.167969 44.914062 L 8.628906 44.914062 Z M 8.628906 16.242188 "/>
</clipPath>
<clipPath id="clip18">
  <path d="M 53.671875 26.835938 C 53.671875 41.65625 41.65625 53.671875 26.835938 53.671875 C 12.015625 53.671875 0 41.65625 0 26.835938 C 0 12.015625 12.015625 0 26.835938 0 C 41.65625 0 53.671875 12.015625 53.671875 26.835938 Z M 53.671875 26.835938 "/>
</clipPath>
<clipPath id="clip19">
  <path d="M 12.179688 27.914062 L 18.523438 27.914062 L 18.523438 31.71875 L 12.179688 31.71875 Z M 12.179688 27.914062 "/>
</clipPath>
<clipPath id="clip20">
  <path d="M 53.671875 26.835938 C 53.671875 41.65625 41.65625 53.671875 26.835938 53.671875 C 12.015625 53.671875 0 41.65625 0 26.835938 C 0 12.015625 12.015625 0 26.835938 0 C 41.65625 0 53.671875 12.015625 53.671875 26.835938 Z M 53.671875 26.835938 "/>
</clipPath>
<clipPath id="clip21">
  <path d="M 36.289062 27.914062 L 42.886719 27.914062 L 42.886719 31.71875 L 36.289062 31.71875 Z M 36.289062 27.914062 "/>
</clipPath>
<clipPath id="clip22">
  <path d="M 53.671875 26.835938 C 53.671875 41.65625 41.65625 53.671875 26.835938 53.671875 C 12.015625 53.671875 0 41.65625 0 26.835938 C 0 12.015625 12.015625 0 26.835938 0 C 41.65625 0 53.671875 12.015625 53.671875 26.835938 Z M 53.671875 26.835938 "/>
</clipPath>
<clipPath id="clip23">
  <path d="M 34.765625 25 L 43.648438 25 L 43.648438 29.183594 L 34.765625 29.183594 Z M 34.765625 25 "/>
</clipPath>
<clipPath id="clip24">
  <path d="M 53.671875 26.835938 C 53.671875 41.65625 41.65625 53.671875 26.835938 53.671875 C 12.015625 53.671875 0 41.65625 0 26.835938 C 0 12.015625 12.015625 0 26.835938 0 C 41.65625 0 53.671875 12.015625 53.671875 26.835938 Z M 53.671875 26.835938 "/>
</clipPath>
<clipPath id="clip25">
  <path d="M 10.910156 25 L 19.539062 25 L 19.539062 29.183594 L 10.910156 29.183594 Z M 10.910156 25 "/>
</clipPath>
<clipPath id="clip26">
  <path d="M 53.671875 26.835938 C 53.671875 41.65625 41.65625 53.671875 26.835938 53.671875 C 12.015625 53.671875 0 41.65625 0 26.835938 C 0 12.015625 12.015625 0 26.835938 0 C 41.65625 0 53.671875 12.015625 53.671875 26.835938 Z M 53.671875 26.835938 "/>
</clipPath>
<clipPath id="clip27">
  <path d="M 8.628906 7.613281 L 45.167969 7.613281 L 45.167969 20.046875 L 8.628906 20.046875 Z M 8.628906 7.613281 "/>
</clipPath>
<clipPath id="clip28">
  <path d="M 53.671875 26.835938 C 53.671875 41.65625 41.65625 53.671875 26.835938 53.671875 C 12.015625 53.671875 0 41.65625 0 26.835938 C 0 12.015625 12.015625 0 26.835938 0 C 41.65625 0 53.671875 12.015625 53.671875 26.835938 Z M 53.671875 26.835938 "/>
</clipPath>
<clipPath id="clip29">
  <path d="M 8.628906 18.777344 L 45.167969 18.777344 L 45.167969 30.199219 L 8.628906 30.199219 Z M 8.628906 18.777344 "/>
</clipPath>
<clipPath id="clip30">
  <path d="M 53.671875 26.835938 C 53.671875 41.65625 41.65625 53.671875 26.835938 53.671875 C 12.015625 53.671875 0 41.65625 0 26.835938 C 0 12.015625 12.015625 0 26.835938 0 C 41.65625 0 53.671875 12.015625 53.671875 26.835938 Z M 53.671875 26.835938 "/>
</clipPath>
<clipPath id="clip31">
  <path d="M 26 32.226562 L 28.167969 32.226562 L 28.167969 33.496094 L 26 33.496094 Z M 26 32.226562 "/>
</clipPath>
<clipPath id="clip32">
  <path d="M 53.671875 26.835938 C 53.671875 41.65625 41.65625 53.671875 26.835938 53.671875 C 12.015625 53.671875 0 41.65625 0 26.835938 C 0 12.015625 12.015625 0 26.835938 0 C 41.65625 0 53.671875 12.015625 53.671875 26.835938 Z M 53.671875 26.835938 "/>
</clipPath>
<clipPath id="clip33">
  <path d="M 38 35.78125 L 39.585938 35.78125 L 39.585938 37.554688 L 38 37.554688 Z M 38 35.78125 "/>
</clipPath>
<clipPath id="clip34">
  <path d="M 53.671875 26.835938 C 53.671875 41.65625 41.65625 53.671875 26.835938 53.671875 C 12.015625 53.671875 0 41.65625 0 26.835938 C 0 12.015625 12.015625 0 26.835938 0 C 41.65625 0 53.671875 12.015625 53.671875 26.835938 Z M 53.671875 26.835938 "/>
</clipPath>
<clipPath id="clip35">
  <path d="M 39.585938 37.300781 L 40.347656 37.300781 L 40.347656 38.316406 L 39.585938 38.316406 Z M 39.585938 37.300781 "/>
</clipPath>
<clipPath id="clip36">
  <path d="M 53.671875 26.835938 C 53.671875 41.65625 41.65625 53.671875 26.835938 53.671875 C 12.015625 53.671875 0 41.65625 0 26.835938 C 0 12.015625 12.015625 0 26.835938 0 C 41.65625 0 53.671875 12.015625 53.671875 26.835938 Z M 53.671875 26.835938 "/>
</clipPath>
<clipPath id="clip37">
  <path d="M 36.796875 37.300781 L 37.808594 37.300781 L 37.808594 38.316406 L 36.796875 38.316406 Z M 36.796875 37.300781 "/>
</clipPath>
<clipPath id="clip38">
  <path d="M 53.671875 26.835938 C 53.671875 41.65625 41.65625 53.671875 26.835938 53.671875 C 12.015625 53.671875 0 41.65625 0 26.835938 C 0 12.015625 12.015625 0 26.835938 0 C 41.65625 0 53.671875 12.015625 53.671875 26.835938 Z M 53.671875 26.835938 "/>
</clipPath>
<clipPath id="clip39">
  <path d="M 38 37.554688 L 38.316406 37.554688 L 38.316406 38 L 38 38 Z M 38 37.554688 "/>
</clipPath>
<clipPath id="clip40">
  <path d="M 53.671875 26.835938 C 53.671875 41.65625 41.65625 53.671875 26.835938 53.671875 C 12.015625 53.671875 0 41.65625 0 26.835938 C 0 12.015625 12.015625 0 26.835938 0 C 41.65625 0 53.671875 12.015625 53.671875 26.835938 Z M 53.671875 26.835938 "/>
</clipPath>
<clipPath id="clip41">
  <path d="M 15.480469 35.78125 L 17.253906 35.78125 L 17.253906 37.554688 L 15.480469 37.554688 Z M 15.480469 35.78125 "/>
</clipPath>
<clipPath id="clip42">
  <path d="M 53.671875 26.835938 C 53.671875 41.65625 41.65625 53.671875 26.835938 53.671875 C 12.015625 53.671875 0 41.65625 0 26.835938 C 0 12.015625 12.015625 0 26.835938 0 C 41.65625 0 53.671875 12.015625 53.671875 26.835938 Z M 53.671875 26.835938 "/>
</clipPath>
<clipPath id="clip43">
  <path d="M 17.253906 37.300781 L 18 37.300781 L 18 38.316406 L 17.253906 38.316406 Z M 17.253906 37.300781 "/>
</clipPath>
<clipPath id="clip44">
  <path d="M 53.671875 26.835938 C 53.671875 41.65625 41.65625 53.671875 26.835938 53.671875 C 12.015625 53.671875 0 41.65625 0 26.835938 C 0 12.015625 12.015625 0 26.835938 0 C 41.65625 0 53.671875 12.015625 53.671875 26.835938 Z M 53.671875 26.835938 "/>
</clipPath>
<clipPath id="clip45">
  <path d="M 14.210938 37.300781 L 15.226562 37.300781 L 15.226562 38.316406 L 14.210938 38.316406 Z M 14.210938 37.300781 "/>
</clipPath>
<clipPath id="clip46">
  <path d="M 53.671875 26.835938 C 53.671875 41.65625 41.65625 53.671875 26.835938 53.671875 C 12.015625 53.671875 0 41.65625 0 26.835938 C 0 12.015625 12.015625 0 26.835938 0 C 41.65625 0 53.671875 12.015625 53.671875 26.835938 Z M 53.671875 26.835938 "/>
</clipPath>
<clipPath id="clip47">
  <path d="M 15.226562 37.554688 L 15.734375 37.554688 L 15.734375 38 L 15.226562 38 Z M 15.226562 37.554688 "/>
</clipPath>
<clipPath id="clip48">
  <path d="M 53.671875 26.835938 C 53.671875 41.65625 41.65625 53.671875 26.835938 53.671875 C 12.015625 53.671875 0 41.65625 0 26.835938 C 0 12.015625 12.015625 0 26.835938 0 C 41.65625 0 53.671875 12.015625 53.671875 26.835938 Z M 53.671875 26.835938 "/>
</clipPath>
<clipPath id="clip49">
  <path d="M 10.148438 34.511719 L 20 34.511719 L 20 43.648438 L 10.148438 43.648438 Z M 10.148438 34.511719 "/>
</clipPath>
<clipPath id="clip50">
  <path d="M 53.671875 26.835938 C 53.671875 41.65625 41.65625 53.671875 26.835938 53.671875 C 12.015625 53.671875 0 41.65625 0 26.835938 C 0 12.015625 12.015625 0 26.835938 0 C 41.65625 0 53.671875 12.015625 53.671875 26.835938 Z M 53.671875 26.835938 "/>
</clipPath>
<clipPath id="clip51">
  <path d="M 33.75 34.511719 L 43.648438 34.511719 L 43.648438 43.648438 L 33.75 43.648438 Z M 33.75 34.511719 "/>
</clipPath>
<clipPath id="clip52">
  <path d="M 53.671875 26.835938 C 53.671875 41.65625 41.65625 53.671875 26.835938 53.671875 C 12.015625 53.671875 0 41.65625 0 26.835938 C 0 12.015625 12.015625 0 26.835938 0 C 41.65625 0 53.671875 12.015625 53.671875 26.835938 Z M 53.671875 26.835938 "/>
</clipPath>
<clipPath id="clip53">
  <path d="M 18.523438 32.226562 L 35.527344 32.226562 L 35.527344 34.511719 L 18.523438 34.511719 Z M 18.523438 32.226562 "/>
</clipPath>
<clipPath id="clip54">
  <path d="M 53.671875 26.835938 C 53.671875 41.65625 41.65625 53.671875 26.835938 53.671875 C 12.015625 53.671875 0 41.65625 0 26.835938 C 0 12.015625 12.015625 0 26.835938 0 C 41.65625 0 53.671875 12.015625 53.671875 26.835938 Z M 53.671875 26.835938 "/>
</clipPath>
<clipPath id="clip55">
  <path d="M 11.925781 50.246094 L 13.703125 50.246094 L 13.703125 52.78125 L 11.925781 52.78125 Z M 11.925781 50.246094 "/>
</clipPath>
<clipPath id="clip56">
  <path d="M 53.671875 26.835938 C 53.671875 41.65625 41.65625 53.671875 26.835938 53.671875 C 12.015625 53.671875 0 41.65625 0 26.835938 C 0 12.015625 12.015625 0 26.835938 0 C 41.65625 0 53.671875 12.015625 53.671875 26.835938 Z M 53.671875 26.835938 "/>
</clipPath>
<clipPath id="clip57">
  <path d="M 18.269531 32.226562 L 36.289062 32.226562 L 36.289062 43.648438 L 18.269531 43.648438 Z M 18.269531 32.226562 "/>
</clipPath>
<clipPath id="clip58">
  <path d="M 53.671875 26.835938 C 53.671875 41.65625 41.65625 53.671875 26.835938 53.671875 C 12.015625 53.671875 0 41.65625 0 26.835938 C 0 12.015625 12.015625 0 26.835938 0 C 41.65625 0 53.671875 12.015625 53.671875 26.835938 Z M 53.671875 26.835938 "/>
</clipPath>
<clipPath id="clip59">
  <path d="M 20.808594 35.019531 L 33.496094 35.019531 L 33.496094 38 L 20.808594 38 Z M 20.808594 35.019531 "/>
</clipPath>
<clipPath id="clip60">
  <path d="M 53.671875 26.835938 C 53.671875 41.65625 41.65625 53.671875 26.835938 53.671875 C 12.015625 53.671875 0 41.65625 0 26.835938 C 0 12.015625 12.015625 0 26.835938 0 C 41.65625 0 53.671875 12.015625 53.671875 26.835938 Z M 53.671875 26.835938 "/>
</clipPath>
</defs>
<g id="surface1">
<path style=" stroke:none;fill-rule:nonzero;fill:rgb(95.294118%,94.901961%,94.509804%);fill-opacity:1;" d="M 53.671875 26.835938 C 53.671875 41.65625 41.65625 53.671875 26.835938 53.671875 C 12.015625 53.671875 0 41.65625 0 26.835938 C 0 12.015625 12.015625 0 26.835938 0 C 41.65625 0 53.671875 12.015625 53.671875 26.835938 Z M 53.671875 26.835938 "/>
<g clip-path="url(#clip1)" clip-rule="nonzero">
<g clip-path="url(#clip2)" clip-rule="nonzero">
<path style=" stroke:none;fill-rule:nonzero;fill:rgb(95.294118%,77.254902%,67.843137%);fill-opacity:1;" d="M 20.207031 44.59375 C 22.3125 45.378906 22.726562 49.46875 21.128906 53.730469 C 19.535156 57.988281 16.53125 60.804688 14.429688 60.015625 C 12.324219 59.226562 11.910156 55.136719 13.507812 50.878906 C 15.105469 46.617188 18.105469 43.804688 20.207031 44.59375 Z M 20.207031 44.59375 "/>
</g>
</g>
<g clip-path="url(#clip3)" clip-rule="nonzero">
<g clip-path="url(#clip4)" clip-rule="nonzero">
<path style=" stroke:none;fill-rule:nonzero;fill:rgb(10.196078%,9.019608%,9.411765%);fill-opacity:0.301961;" d="M 13.226562 54.703125 C 12.90625 54.492188 12.894531 53.652344 13.183594 52.765625 C 13.152344 52.835938 13.121094 52.910156 13.09375 52.988281 C 12.722656 53.953125 12.707031 54.925781 13.054688 55.15625 C 13.40625 55.386719 13.984375 54.789062 14.351562 53.820312 C 14.382812 53.742188 14.40625 53.667969 14.429688 53.589844 C 14.066406 54.421875 13.546875 54.914062 13.226562 54.703125 Z M 13.226562 54.703125 "/>
</g>
</g>
<g clip-path="url(#clip5)" clip-rule="nonzero">
<g clip-path="url(#clip6)" clip-rule="nonzero">
<path style=" stroke:none;fill-rule:nonzero;fill:rgb(95.294118%,77.254902%,67.843137%);fill-opacity:1;" d="M 32.699219 42.308594 C 30.597656 43.09375 30.183594 47.1875 31.78125 51.445312 C 33.375 55.703125 36.375 58.519531 38.480469 57.730469 C 40.582031 56.941406 40.996094 52.851562 39.398438 48.59375 C 37.804688 44.335938 34.804688 41.519531 32.699219 42.308594 Z M 32.699219 42.308594 "/>
</g>
</g>
<g clip-path="url(#clip7)" clip-rule="nonzero">
<g clip-path="url(#clip8)" clip-rule="nonzero">
<path style=" stroke:none;fill-rule:nonzero;fill:rgb(22.745098%,64.313725%,53.333333%);fill-opacity:1;" d="M 39.863281 47.273438 L 36.140625 41.988281 L 33.140625 43.367188 L 32.875 42.496094 L 20.902344 42.496094 L 20.695312 43.25 L 17.949219 41.988281 L 14.226562 47.273438 L 18.984375 49.457031 L 16.058594 60.082031 L 38.257812 60.082031 L 35.015625 49.5 Z M 39.863281 47.273438 "/>
</g>
</g>
<g clip-path="url(#clip9)" clip-rule="nonzero">
<g clip-path="url(#clip10)" clip-rule="nonzero">
<path style=" stroke:none;fill-rule:nonzero;fill:rgb(100%,100%,100%);fill-opacity:1;" d="M 27.042969 48.089844 C 28.957031 48.089844 30.503906 46.542969 30.503906 44.632812 C 30.503906 42.722656 28.957031 41.175781 27.042969 41.175781 C 25.136719 41.175781 23.585938 42.722656 23.585938 44.632812 C 23.585938 46.542969 25.136719 48.089844 27.042969 48.089844 Z M 27.042969 48.089844 "/>
</g>
</g>
<g clip-path="url(#clip11)" clip-rule="nonzero">
<g clip-path="url(#clip12)" clip-rule="nonzero">
<path style=" stroke:none;fill-rule:nonzero;fill:rgb(83.529412%,65.098039%,56.862745%);fill-opacity:1;" d="M 27.039062 47.464844 C 28.609375 47.464844 29.878906 46.277344 29.878906 44.8125 C 29.878906 43.351562 28.609375 42.164062 27.039062 42.164062 C 25.46875 42.164062 24.199219 43.351562 24.199219 44.8125 C 24.199219 46.277344 25.46875 47.464844 27.039062 47.464844 Z M 27.039062 47.464844 "/>
</g>
</g>
<g clip-path="url(#clip13)" clip-rule="nonzero">
<g clip-path="url(#clip14)" clip-rule="nonzero">
<path style=" stroke:none;fill-rule:nonzero;fill:rgb(95.294118%,77.254902%,67.843137%);fill-opacity:1;" d="M 8.835938 32.023438 C 10.355469 32.023438 11.582031 30.796875 11.582031 29.28125 C 11.582031 27.765625 10.355469 26.535156 8.835938 26.535156 C 7.320312 26.535156 6.089844 27.765625 6.089844 29.28125 C 6.089844 30.796875 7.320312 32.023438 8.835938 32.023438 Z M 8.835938 32.023438 "/>
</g>
</g>
<g clip-path="url(#clip15)" clip-rule="nonzero">
<g clip-path="url(#clip16)" clip-rule="nonzero">
<path style=" stroke:none;fill-rule:nonzero;fill:rgb(95.294118%,77.254902%,67.843137%);fill-opacity:1;" d="M 44.644531 32.023438 C 46.160156 32.023438 47.390625 30.796875 47.390625 29.28125 C 47.390625 27.765625 46.160156 26.535156 44.644531 26.535156 C 43.125 26.535156 41.898438 27.765625 41.898438 29.28125 C 41.898438 30.796875 43.125 32.023438 44.644531 32.023438 Z M 44.644531 32.023438 "/>
</g>
</g>
<g clip-path="url(#clip17)" clip-rule="nonzero">
<g clip-path="url(#clip18)" clip-rule="nonzero">
<path style=" stroke:none;fill-rule:nonzero;fill:rgb(95.294118%,77.254902%,67.843137%);fill-opacity:1;" d="M 26.941406 44.835938 C 37 44.835938 45.152344 38.460938 45.152344 30.601562 C 45.152344 22.742188 37 16.371094 26.941406 16.371094 C 16.886719 16.371094 8.734375 22.742188 8.734375 30.601562 C 8.734375 38.460938 16.886719 44.835938 26.941406 44.835938 Z M 26.941406 44.835938 "/>
</g>
</g>
<g clip-path="url(#clip19)" clip-rule="nonzero">
<g clip-path="url(#clip20)" clip-rule="nonzero">
<path style=" stroke:none;fill-rule:nonzero;fill:rgb(10.196078%,9.019608%,9.411765%);fill-opacity:0.380392;" d="M 18.5 31.167969 C 18.5 32.945312 17.089844 28.886719 15.347656 28.886719 C 13.605469 28.886719 12.191406 32.945312 12.191406 31.167969 C 12.191406 29.394531 13.605469 27.957031 15.347656 27.957031 C 17.089844 27.957031 18.5 29.394531 18.5 31.167969 Z M 18.5 31.167969 "/>
</g>
</g>
<g clip-path="url(#clip21)" clip-rule="nonzero">
<g clip-path="url(#clip22)" clip-rule="nonzero">
<path style=" stroke:none;fill-rule:nonzero;fill:rgb(10.196078%,9.019608%,9.411765%);fill-opacity:0.380392;" d="M 42.710938 31.167969 C 42.710938 32.945312 41.296875 28.886719 39.554688 28.886719 C 37.8125 28.886719 36.40625 32.945312 36.40625 31.167969 C 36.40625 29.394531 37.8125 27.957031 39.554688 27.957031 C 41.296875 27.957031 42.710938 29.394531 42.710938 31.167969 Z M 42.710938 31.167969 "/>
</g>
</g>
<g clip-path="url(#clip23)" clip-rule="nonzero">
<g clip-path="url(#clip24)" clip-rule="nonzero">
<path style=" stroke:none;fill-rule:nonzero;fill:rgb(10.196078%,9.019608%,9.411765%);fill-opacity:0.301961;" d="M 39.25 25.660156 C 41.507812 25.660156 43.351562 27.210938 43.511719 29.179688 C 43.519531 29.089844 43.523438 28.996094 43.523438 28.90625 C 43.523438 26.808594 41.613281 25.113281 39.25 25.113281 C 36.894531 25.113281 34.980469 26.808594 34.980469 28.90625 C 34.980469 28.996094 34.984375 29.089844 34.992188 29.179688 C 35.148438 27.210938 36.996094 25.660156 39.25 25.660156 Z M 39.25 25.660156 "/>
</g>
</g>
<g clip-path="url(#clip25)" clip-rule="nonzero">
<g clip-path="url(#clip26)" clip-rule="nonzero">
<path style=" stroke:none;fill-rule:nonzero;fill:rgb(10.196078%,9.019608%,9.411765%);fill-opacity:0.301961;" d="M 15.246094 25.660156 C 17.5 25.660156 19.347656 27.210938 19.503906 29.179688 C 19.511719 29.089844 19.519531 28.996094 19.519531 28.90625 C 19.519531 26.808594 17.605469 25.113281 15.246094 25.113281 C 12.886719 25.113281 10.972656 26.808594 10.972656 28.90625 C 10.972656 28.996094 10.976562 29.089844 10.984375 29.179688 C 11.144531 27.210938 12.988281 25.660156 15.246094 25.660156 Z M 15.246094 25.660156 "/>
</g>
</g>
<g clip-path="url(#clip27)" clip-rule="nonzero">
<g clip-path="url(#clip28)" clip-rule="nonzero">
<path style=" stroke:none;fill-rule:nonzero;fill:rgb(92.54902%,62.745098%,25.882353%);fill-opacity:1;" d="M 45.125 20.027344 C 45.140625 19.832031 45.152344 19.636719 45.152344 19.4375 C 45.152344 16.898438 43.714844 14.5625 41.304688 12.703125 C 41.015625 12.480469 42.289062 9.855469 41.972656 9.648438 C 41.703125 9.46875 39.839844 11.699219 39.550781 11.53125 C 39.410156 11.453125 39.269531 11.375 39.125 11.296875 C 38.597656 11.011719 39.199219 7.886719 38.617188 7.636719 C 38.109375 7.421875 36.421875 10.074219 35.875 9.890625 C 33.234375 8.996094 30.1875 8.480469 26.941406 8.480469 C 17.070312 8.480469 9.035156 13.203125 8.734375 19.097656 L 45.125 19.097656 Z M 45.125 20.027344 "/>
</g>
</g>
<g clip-path="url(#clip29)" clip-rule="nonzero">
<g clip-path="url(#clip30)" clip-rule="nonzero">
<path style=" stroke:none;fill-rule:nonzero;fill:rgb(92.54902%,62.745098%,25.882353%);fill-opacity:1;" d="M 45.152344 18.808594 L 8.734375 18.808594 L 8.734375 30.195312 C 8.734375 30.195312 20.621094 26.441406 24.582031 25.1875 C 27.066406 24.40625 34.503906 22.054688 34.503906 22.054688 L 45.152344 30.195312 Z M 45.152344 18.808594 "/>
</g>
</g>
<g clip-path="url(#clip31)" clip-rule="nonzero">
<g clip-path="url(#clip32)" clip-rule="nonzero">
<path style=" stroke:none;fill-rule:nonzero;fill:rgb(10.196078%,9.019608%,9.411765%);fill-opacity:0.301961;" d="M 27.042969 32.632812 C 27.535156 32.632812 27.949219 32.984375 28.042969 33.449219 C 28.054688 33.382812 28.0625 33.316406 28.0625 33.246094 C 28.0625 32.683594 27.609375 32.226562 27.042969 32.226562 C 26.484375 32.226562 26.027344 32.683594 26.027344 33.246094 C 26.027344 33.316406 26.035156 33.382812 26.050781 33.449219 C 26.140625 32.984375 26.554688 32.632812 27.042969 32.632812 Z M 27.042969 32.632812 "/>
</g>
</g>
<g clip-path="url(#clip33)" clip-rule="nonzero">
<g clip-path="url(#clip34)" clip-rule="nonzero">
<path style=" stroke:none;fill-rule:nonzero;fill:rgb(96.470588%,67.45098%,17.254902%);fill-opacity:0.501961;" d="M 38.742188 37.3125 C 39.136719 37.3125 39.457031 36.992188 39.457031 36.601562 C 39.457031 36.207031 39.136719 35.886719 38.742188 35.886719 C 38.347656 35.886719 38.03125 36.207031 38.03125 36.601562 C 38.03125 36.992188 38.347656 37.3125 38.742188 37.3125 Z M 38.742188 37.3125 "/>
</g>
</g>
<g clip-path="url(#clip35)" clip-rule="nonzero">
<g clip-path="url(#clip36)" clip-rule="nonzero">
<path style=" stroke:none;fill-rule:nonzero;fill:rgb(96.470588%,67.45098%,17.254902%);fill-opacity:0.501961;" d="M 39.964844 38.125 C 40.132812 38.125 40.269531 37.988281 40.269531 37.820312 C 40.269531 37.652344 40.132812 37.515625 39.964844 37.515625 C 39.796875 37.515625 39.660156 37.652344 39.660156 37.820312 C 39.660156 37.988281 39.796875 38.125 39.964844 38.125 Z M 39.964844 38.125 "/>
</g>
</g>
<g clip-path="url(#clip37)" clip-rule="nonzero">
<g clip-path="url(#clip38)" clip-rule="nonzero">
<path style=" stroke:none;fill-rule:nonzero;fill:rgb(96.470588%,67.45098%,17.254902%);fill-opacity:0.501961;" d="M 37.21875 38.125 C 37.441406 38.125 37.625 37.941406 37.625 37.71875 C 37.625 37.492188 37.441406 37.3125 37.21875 37.3125 C 36.992188 37.3125 36.808594 37.492188 36.808594 37.71875 C 36.808594 37.941406 36.992188 38.125 37.21875 38.125 Z M 37.21875 38.125 "/>
</g>
</g>
<g clip-path="url(#clip39)" clip-rule="nonzero">
<g clip-path="url(#clip40)" clip-rule="nonzero">
<path style=" stroke:none;fill-rule:nonzero;fill:rgb(96.470588%,67.45098%,17.254902%);fill-opacity:0.501961;" d="M 38.132812 37.921875 C 38.191406 37.921875 38.234375 37.875 38.234375 37.820312 C 38.234375 37.761719 38.191406 37.71875 38.132812 37.71875 C 38.078125 37.71875 38.03125 37.761719 38.03125 37.820312 C 38.03125 37.875 38.078125 37.921875 38.132812 37.921875 Z M 38.132812 37.921875 "/>
</g>
</g>
<g clip-path="url(#clip41)" clip-rule="nonzero">
<g clip-path="url(#clip42)" clip-rule="nonzero">
<path style=" stroke:none;fill-rule:nonzero;fill:rgb(96.470588%,67.45098%,17.254902%);fill-opacity:0.501961;" d="M 16.363281 37.3125 C 16.757812 37.3125 17.074219 36.992188 17.074219 36.601562 C 17.074219 36.207031 16.757812 35.886719 16.363281 35.886719 C 15.972656 35.886719 15.652344 36.207031 15.652344 36.601562 C 15.652344 36.992188 15.972656 37.3125 16.363281 37.3125 Z M 16.363281 37.3125 "/>
</g>
</g>
<g clip-path="url(#clip43)" clip-rule="nonzero">
<g clip-path="url(#clip44)" clip-rule="nonzero">
<path style=" stroke:none;fill-rule:nonzero;fill:rgb(96.470588%,67.45098%,17.254902%);fill-opacity:0.501961;" d="M 17.585938 38.125 C 17.753906 38.125 17.890625 37.988281 17.890625 37.820312 C 17.890625 37.652344 17.753906 37.515625 17.585938 37.515625 C 17.417969 37.515625 17.28125 37.652344 17.28125 37.820312 C 17.28125 37.988281 17.417969 38.125 17.585938 38.125 Z M 17.585938 38.125 "/>
</g>
</g>
<g clip-path="url(#clip45)" clip-rule="nonzero">
<g clip-path="url(#clip46)" clip-rule="nonzero">
<path style=" stroke:none;fill-rule:nonzero;fill:rgb(96.470588%,67.45098%,17.254902%);fill-opacity:0.501961;" d="M 14.636719 38.125 C 14.859375 38.125 15.042969 37.941406 15.042969 37.71875 C 15.042969 37.492188 14.859375 37.3125 14.636719 37.3125 C 14.410156 37.3125 14.226562 37.492188 14.226562 37.71875 C 14.226562 37.941406 14.410156 38.125 14.636719 38.125 Z M 14.636719 38.125 "/>
</g>
</g>
<g clip-path="url(#clip47)" clip-rule="nonzero">
<g clip-path="url(#clip48)" clip-rule="nonzero">
<path style=" stroke:none;fill-rule:nonzero;fill:rgb(96.470588%,67.45098%,17.254902%);fill-opacity:0.501961;" d="M 15.550781 37.921875 C 15.605469 37.921875 15.652344 37.875 15.652344 37.820312 C 15.652344 37.761719 15.605469 37.71875 15.550781 37.71875 C 15.496094 37.71875 15.449219 37.761719 15.449219 37.820312 C 15.449219 37.875 15.496094 37.921875 15.550781 37.921875 Z M 15.550781 37.921875 "/>
</g>
</g>
<g clip-path="url(#clip49)" clip-rule="nonzero">
<g clip-path="url(#clip50)" clip-rule="nonzero">
<path style=" stroke:none;fill-rule:nonzero;fill:rgb(2.745098%,2.745098%,2.352941%);fill-opacity:0.0509804;" d="M 14.394531 34.667969 C 12.804688 34.667969 11.371094 35.34375 10.363281 36.425781 C 12.09375 39.464844 15.136719 41.941406 18.929688 43.410156 C 19.554688 42.507812 19.925781 41.414062 19.925781 40.230469 C 19.925781 37.15625 17.449219 34.667969 14.394531 34.667969 Z M 14.394531 34.667969 "/>
</g>
</g>
<g clip-path="url(#clip51)" clip-rule="nonzero">
<g clip-path="url(#clip52)" clip-rule="nonzero">
<path style=" stroke:none;fill-rule:nonzero;fill:rgb(2.745098%,2.745098%,2.352941%);fill-opacity:0.0509804;" d="M 39.492188 34.667969 C 41.082031 34.667969 42.515625 35.34375 43.523438 36.425781 C 41.792969 39.464844 38.75 41.941406 34.957031 43.410156 C 34.332031 42.507812 33.960938 41.414062 33.960938 40.230469 C 33.960938 37.15625 36.4375 34.667969 39.492188 34.667969 Z M 39.492188 34.667969 "/>
</g>
</g>
<g clip-path="url(#clip53)" clip-rule="nonzero">
<g clip-path="url(#clip54)" clip-rule="nonzero">
<path style=" stroke:none;fill-rule:nonzero;fill:rgb(10.196078%,9.019608%,9.411765%);fill-opacity:0.0509804;" d="M 27.042969 34.261719 C 31.652344 34.261719 35.386719 33.851562 35.386719 33.34375 C 35.386719 32.84375 31.652344 32.433594 27.042969 32.433594 C 22.4375 32.433594 18.703125 32.84375 18.703125 33.34375 C 18.703125 33.851562 22.4375 34.261719 27.042969 34.261719 Z M 27.042969 34.261719 "/>
</g>
</g>
<g clip-path="url(#clip55)" clip-rule="nonzero">
<g clip-path="url(#clip56)" clip-rule="nonzero">
<path style=" stroke:none;fill-rule:nonzero;fill:rgb(94.509804%,72.156863%,61.176471%);fill-opacity:1;" d="M 13.300781 51.191406 C 12.90625 50.640625 12.367188 50.355469 12.09375 50.550781 C 11.820312 50.75 11.914062 51.351562 12.308594 51.898438 C 12.699219 52.445312 13.238281 52.730469 13.515625 52.539062 C 13.789062 52.34375 13.691406 51.738281 13.300781 51.191406 Z M 13.300781 51.191406 "/>
</g>
</g>
<g clip-path="url(#clip57)" clip-rule="nonzero">
<g clip-path="url(#clip58)" clip-rule="nonzero">
<path style="fill:none;stroke-width:3;stroke-linecap:butt;stroke-linejoin:miter;stroke:rgb(64.313725%,52.54902%,46.666667%);stroke-opacity:1;stroke-miterlimit:4;" d="M 173.105247 199.80787 C 173.105247 206.560494 159.723148 212.061111 143.180247 212.061111 C 126.616821 212.061111 113.234722 206.560494 113.234722 199.80787 C 113.234722 192.993673 126.616821 187.493056 143.180247 187.493056 C 159.723148 187.493056 173.105247 192.993673 173.105247 199.80787 Z M 173.105247 199.80787 " transform="matrix(0.19032,0,0,0.19032,0,0)"/>
</g>
</g>
<g clip-path="url(#clip59)" clip-rule="nonzero">
<g clip-path="url(#clip60)" clip-rule="nonzero">
<path style=" stroke:none;fill-rule:nonzero;fill:rgb(95.294118%,77.254902%,67.843137%);fill-opacity:1;" d="M 20.941406 35.074219 L 20.941406 37.921875 L 33.351562 37.921875 L 33.351562 35.074219 Z M 20.941406 35.074219 "/>
</g>
</g>
</g>
</svg>
