<?xml version="1.0" encoding="UTF-8" standalone="no"?>
<!-- Generator: Adobe Illustrator 16.0.0, SVG Export Plug-In . SVG Version: 6.00 Build 0)  -->

<svg
   xmlns:dc="http://purl.org/dc/elements/1.1/"
   xmlns:cc="http://creativecommons.org/ns#"
   xmlns:rdf="http://www.w3.org/1999/02/22-rdf-syntax-ns#"
   xmlns:svg="http://www.w3.org/2000/svg"
   xmlns="http://www.w3.org/2000/svg"
   xmlns:sodipodi="http://sodipodi.sourceforge.net/DTD/sodipodi-0.dtd"
   xmlns:inkscape="http://www.inkscape.org/namespaces/inkscape"
   version="1.1"
   id="Layer_1"
   x="0px"
   y="0px"
   width="247.795"
   height="92.551003"
   viewBox="0 0 247.79499 92.550998"
   enable-background="new 0 0 841.89 595.28"
   xml:space="preserve"
   inkscape:version="0.48.2 r9819"
   sodipodi:docname="Samsung Galaxy S II logo in white.svg"><metadata
   id="metadata183"><rdf:RDF><cc:Work
       rdf:about=""><dc:format>image/svg+xml</dc:format><dc:type
         rdf:resource="http://purl.org/dc/dcmitype/StillImage" /><dc:title></dc:title></cc:Work></rdf:RDF></metadata><defs
   id="defs181">
	
	
</defs><sodipodi:namedview
   pagecolor="#ffffff"
   bordercolor="#666666"
   borderopacity="1"
   objecttolerance="10"
   gridtolerance="10"
   guidetolerance="10"
   inkscape:pageopacity="0"
   inkscape:pageshadow="2"
   inkscape:window-width="1600"
   inkscape:window-height="837"
   id="namedview179"
   showgrid="false"
   fit-margin-top="0"
   fit-margin-left="0"
   fit-margin-right="0"
   fit-margin-bottom="0"
   inkscape:zoom="2.2426716"
   inkscape:cx="134.44015"
   inkscape:cy="7.8010821"
   inkscape:window-x="-8"
   inkscape:window-y="-8"
   inkscape:window-maximized="1"
   inkscape:current-layer="Layer_1" />



<g
   style="fill:#000000"
   id="g51"
   transform="translate(-346.871,-176.268)">
		<g
   style="fill:#000000"
   id="g53">
			<g
   style="fill:#000000"
   id="g55">
				<path
   style="fill:#000000"
   inkscape:connector-curvature="0"
   id="path57"
   d="m 347.034,244.062 v -16.891 c 0,-7.799 3.952,-11.277 12.809,-11.277 3.396,0 7.688,0.424 10.432,1.029 0,0 0.117,0.024 0.25,0.052 -0.066,0.588 -0.327,2.77 -0.407,3.437 -0.137,-0.021 -0.287,-0.046 -0.287,-0.046 -2.565,-0.411 -6.371,-0.903 -9.93,-0.903 -6.696,0 -8.956,1.96 -8.956,7.768 v 16.776 c 0,5.033 1.382,7.762 8.673,7.762 1.785,0 4.766,-0.188 7.291,-0.727 l 0.358,-0.077 c 0,0 0,-12.573 0,-13.42 0.667,0 3.244,0 3.909,0 0,0.841 0,15.501 0,16.135 -0.096,0.027 -0.205,0.059 -0.205,0.059 -3.445,1.003 -7.779,1.598 -11.582,1.598 -8.659,-0.002 -12.355,-3.374 -12.355,-11.275 z" />
				<path
   style="fill:#000000"
   inkscape:connector-curvature="0"
   id="path59"
   d="m 412.001,244.062 c 0,0 0,-27.294 0,-28.18 0.669,0.006 3.248,0.038 3.905,0.044 0,0.867 0,28.08 0,28.08 0,5.033 1.382,7.762 8.673,7.762 0,0 10.24,0 11.079,0 0,0.645 0,2.843 0,3.482 -0.83,0.004 -11.297,0.085 -11.307,0.085 -8.656,0 -12.35,-3.372 -12.35,-11.273 z" />
				<path
   style="fill:#000000"
   inkscape:connector-curvature="0"
   id="path61"
   d="m 505.039,216.461 c 0,0 0.278,0 0.524,0 -0.857,1.305 -12.428,18.872 -12.428,18.872 0,0 11.963,18.129 12.828,19.435 -1.136,0 -3.934,0 -4.304,0 -0.264,-0.395 -10.678,-16.26 -10.678,-16.26 0,0 -10.408,15.865 -10.671,16.26 -0.37,0 -3.165,0 -4.303,0 0.864,-1.306 12.827,-19.435 12.827,-19.435 0,0 -11.57,-17.567 -12.431,-18.872 1.135,0 3.929,0 4.305,0 0.262,0.397 10.272,15.69 10.272,15.69 0,0 10.018,-15.293 10.28,-15.69 0.434,0 3.779,0 3.779,0 z" />
				<path
   style="fill:#000000"
   inkscape:connector-curvature="0"
   id="path63"
   d="m 538.383,216.461 c 0,0 0.239,0 0.452,0 -0.609,1.245 -13.034,26.475 -13.034,26.475 0,0 0,10.995 0,11.832 -0.668,0 -3.241,0 -3.908,0 0,-0.837 0,-11.832 0,-11.832 0,0 -12.424,-25.23 -13.035,-26.475 0.999,0 3.654,0 4.088,0 0.237,0.498 10.875,22.42 10.875,22.42 0,0 10.686,-21.924 10.93,-22.42 0.481,0 3.632,0 3.632,0 z" />
				<path
   style="fill:#000000"
   inkscape:connector-curvature="0"
   id="path65"
   d="m 404.287,254.768 c 0.476,0 2.993,0 3.882,0 -0.402,-1.153 -13.14,-37.717 -13.344,-38.307 -0.093,0 -0.203,0 -0.203,0 0,0 -4.561,0 -5.128,0 -0.204,0.59 -12.942,37.153 -13.347,38.307 0.889,0 3.407,0 3.885,0 0.238,-0.678 2.325,-6.745 4.701,-13.657 h 14.836 c 2.474,7.171 4.633,13.42 4.718,13.657 z m -18.331,-17.224 c 3.071,-8.936 6.175,-17.99 6.175,-17.99 0,0 3.126,9.058 6.205,17.99 h -12.38 z" />
				<path
   style="fill:#000000"
   inkscape:connector-curvature="0"
   id="path67"
   d="m 468.558,254.768 c 0.479,0 2.997,0 3.884,0 -0.402,-1.153 -13.139,-37.717 -13.344,-38.307 -0.095,0 -0.199,0 -0.199,0 0,0 -4.563,0 -5.133,0 -0.203,0.59 -12.944,37.153 -13.347,38.307 0.886,0 3.405,0 3.887,0 0.24,-0.678 2.324,-6.745 4.702,-13.657 h 14.832 c 2.474,7.171 4.633,13.42 4.718,13.657 z m -18.329,-17.224 c 3.068,-8.936 6.175,-17.99 6.175,-17.99 0,0 3.126,9.058 6.204,17.99 h -12.379 z" />
			</g>
			<g
   style="fill:#000000"
   id="g69">
				<path
   style="fill:#000000"
   inkscape:connector-curvature="0"
   id="path71"
   d="m 351.163,189.726 c -0.826,-0.281 -1.496,-0.663 -2.011,-1.14 -0.515,-0.478 -0.916,-1.001 -1.198,-1.565 -0.283,-0.569 -0.485,-1.173 -0.599,-1.818 -0.117,-0.645 -0.175,-1.278 -0.175,-1.895 v -0.541 c 0,-2.087 0.586,-3.694 1.762,-4.815 1.17,-1.121 2.956,-1.684 5.354,-1.684 h 1.353 c 1.855,0 3.325,0.42 4.408,1.258 1.083,0.837 1.625,2.21 1.625,4.118 0,0.386 -0.104,0.715 -0.31,0.986 -0.208,0.269 -0.568,0.405 -1.083,0.405 -0.516,0 -0.876,-0.136 -1.083,-0.405 -0.206,-0.271 -0.31,-0.601 -0.31,-0.986 0,-0.979 -0.294,-1.681 -0.889,-2.107 -0.592,-0.426 -1.38,-0.64 -2.358,-0.64 h -1.353 c -1.546,0 -2.657,0.305 -3.326,0.909 -0.671,0.606 -1.005,1.592 -1.005,2.96 v 0.541 c 0,1.032 0.18,1.862 0.541,2.491 0.361,0.634 0.98,1.105 1.856,1.412 l 5.993,2.128 c 1.418,0.517 2.489,1.335 3.21,2.455 0.722,1.122 1.083,2.496 1.083,4.12 v 1.311 c 0,2.091 -0.588,3.76 -1.76,5.011 -1.173,1.25 -2.958,1.876 -5.355,1.876 h -2.629 c -1.856,0 -3.326,-0.42 -4.41,-1.258 -1.081,-0.836 -1.623,-2.21 -1.623,-4.118 0,-0.388 0.102,-0.714 0.308,-0.983 0.207,-0.273 0.567,-0.408 1.083,-0.408 0.517,0 0.876,0.135 1.084,0.408 0.205,0.269 0.31,0.595 0.31,0.983 0,0.981 0.295,1.683 0.89,2.108 0.589,0.424 1.377,0.639 2.358,0.639 h 2.629 c 1.546,0 2.653,-0.369 3.325,-1.103 0.67,-0.735 1.004,-1.784 1.004,-3.154 v -1.311 c 0,-0.98 -0.181,-1.806 -0.541,-2.477 -0.361,-0.667 -0.916,-1.146 -1.663,-1.429 l -6.495,-2.282 z" />
				<path
   style="fill:#000000"
   inkscape:connector-curvature="0"
   id="path73"
   d="m 374.44,183.618 c 1.856,0 3.318,0.534 4.39,1.605 1.069,1.068 1.604,2.455 1.604,4.155 v 12.953 c 0,0.388 -0.104,0.715 -0.309,0.987 -0.207,0.271 -0.567,0.407 -1.082,0.407 h -6.187 c -1.855,0 -3.318,-0.407 -4.389,-1.221 -1.071,-0.809 -1.604,-2.067 -1.604,-3.769 v -3.133 c 0,-1.698 0.534,-2.958 1.604,-3.77 1.071,-0.811 2.534,-1.219 4.389,-1.219 h 4.872 v -1.158 c 0,-1.212 -0.302,-2.063 -0.909,-2.551 -0.606,-0.49 -1.398,-0.736 -2.378,-0.736 h -4.331 c -0.362,0 -0.67,-0.097 -0.927,-0.292 -0.26,-0.193 -0.388,-0.522 -0.388,-0.984 0,-0.465 0.128,-0.793 0.388,-0.986 0.257,-0.193 0.565,-0.29 0.927,-0.29 h 4.33 z m 3.287,17.553 v -8.003 h -4.872 c -0.98,0 -1.773,0.21 -2.378,0.638 -0.606,0.426 -0.908,1.049 -0.908,1.875 v 3.054 c 0,0.772 0.301,1.373 0.908,1.798 0.605,0.425 1.398,0.638 2.378,0.638 h 4.872 z" />
				<path
   style="fill:#000000"
   inkscape:connector-curvature="0"
   id="path75"
   d="m 404.407,190.5 c 0,-1.366 -0.335,-2.43 -1.006,-3.191 -0.67,-0.761 -1.777,-1.14 -3.324,-1.14 h -2.167 v 16.549 c 0,0.386 -0.094,0.716 -0.289,0.987 -0.193,0.27 -0.549,0.406 -1.064,0.406 -0.514,0 -0.869,-0.136 -1.062,-0.406 -0.194,-0.271 -0.29,-0.601 -0.29,-0.987 v -16.549 h -6.497 v 16.549 c 0,0.386 -0.096,0.716 -0.292,0.987 -0.193,0.27 -0.547,0.406 -1.063,0.406 -0.516,0 -0.87,-0.136 -1.063,-0.406 -0.193,-0.271 -0.291,-0.601 -0.291,-0.987 V 185.01 c 0,-0.387 0.098,-0.716 0.291,-0.987 0.194,-0.272 0.548,-0.405 1.063,-0.405 h 12.721 c 2.397,0 4.169,0.625 5.317,1.876 1.146,1.248 1.72,2.917 1.72,5.006 v 12.178 c 0,0.388 -0.095,0.718 -0.289,0.987 -0.193,0.271 -0.547,0.406 -1.064,0.406 -0.515,0 -0.869,-0.134 -1.064,-0.406 -0.191,-0.269 -0.289,-0.599 -0.289,-0.987 V 190.5 z" />
				<path
   style="fill:#000000"
   inkscape:connector-curvature="0"
   id="path77"
   d="m 417.437,204.112 c -1.701,0 -3.048,-0.357 -4.041,-1.066 -0.992,-0.708 -1.488,-1.835 -1.488,-3.382 0,-0.388 0.095,-0.714 0.288,-0.987 0.193,-0.269 0.548,-0.404 1.064,-0.404 0.516,0 0.863,0.135 1.044,0.404 0.179,0.273 0.284,0.6 0.309,0.987 0.079,1.313 1.021,1.971 2.823,1.971 h 1.972 c 0.981,0 1.773,-0.226 2.378,-0.676 0.606,-0.45 0.909,-1.063 0.909,-1.834 V 197.5 c 0,-0.59 -0.168,-1.075 -0.503,-1.451 -0.334,-0.374 -0.799,-0.637 -1.392,-0.793 l -5.298,-1.391 c -1.057,-0.283 -1.875,-0.799 -2.456,-1.546 -0.579,-0.747 -0.869,-1.741 -0.869,-2.978 v -1.122 c 0,-1.7 0.534,-2.957 1.604,-3.769 1.068,-0.813 2.534,-1.219 4.389,-1.219 h 1.003 c 1.703,0 3.05,0.356 4.041,1.064 0.992,0.71 1.49,1.837 1.49,3.383 0,0.386 -0.096,0.716 -0.291,0.987 -0.193,0.271 -0.546,0.404 -1.062,0.404 -0.517,0 -0.864,-0.132 -1.046,-0.404 -0.18,-0.271 -0.285,-0.601 -0.308,-0.987 -0.079,-1.315 -1.019,-1.972 -2.825,-1.972 h -1.003 c -0.98,0 -1.772,0.227 -2.378,0.675 -0.605,0.453 -0.909,1.065 -0.909,1.838 v 1.122 c 0,0.591 0.174,1.083 0.523,1.469 0.348,0.387 0.817,0.657 1.41,0.811 l 5.259,1.354 c 1.084,0.285 1.907,0.802 2.476,1.548 0.566,0.747 0.853,1.74 0.853,2.978 v 1.625 c 0,1.701 -0.536,2.956 -1.607,3.771 -1.07,0.811 -2.533,1.217 -4.389,1.217 h -1.97 z" />
				<path
   style="fill:#000000"
   inkscape:connector-curvature="0"
   id="path79"
   d="m 432.903,196.841 c 0,1.367 0.335,2.429 1.005,3.188 0.671,0.761 1.78,1.142 3.327,1.142 h 4.407 v -16.548 c 0,-0.387 0.096,-0.716 0.29,-0.986 0.194,-0.27 0.547,-0.407 1.065,-0.407 0.514,0 0.868,0.136 1.062,0.407 0.194,0.271 0.292,0.6 0.292,0.986 v 17.708 c 0,0.388 -0.099,0.715 -0.292,0.987 -0.193,0.271 -0.548,0.407 -1.062,0.407 h -5.763 c -2.398,0 -4.17,-0.626 -5.317,-1.875 -1.147,-1.25 -1.72,-2.922 -1.72,-5.009 V 184.66 c 0,-0.385 0.097,-0.715 0.29,-0.984 0.192,-0.272 0.547,-0.41 1.063,-0.41 0.516,0 0.869,0.138 1.063,0.41 0.193,0.269 0.289,0.599 0.289,0.984 v 12.181 z" />
				<path
   style="fill:#000000"
   inkscape:connector-curvature="0"
   id="path81"
   d="m 461.672,190.5 c 0,-1.366 -0.334,-2.43 -1.005,-3.191 -0.672,-0.761 -1.778,-1.14 -3.324,-1.14 h -4.409 v 16.549 c 0,0.386 -0.096,0.716 -0.289,0.987 -0.194,0.27 -0.55,0.406 -1.063,0.406 -0.516,0 -0.87,-0.136 -1.065,-0.406 -0.19,-0.271 -0.287,-0.601 -0.287,-0.987 V 185.01 c 0,-0.387 0.097,-0.716 0.287,-0.987 0.195,-0.272 0.55,-0.405 1.065,-0.405 h 5.762 c 2.396,0 4.169,0.625 5.316,1.876 1.146,1.248 1.721,2.917 1.721,5.006 v 12.178 c 0,0.388 -0.098,0.718 -0.293,0.987 -0.19,0.271 -0.545,0.406 -1.063,0.406 -0.512,0 -0.869,-0.134 -1.061,-0.406 -0.193,-0.269 -0.291,-0.599 -0.291,-0.987 V 190.5 z" />
				<path
   style="fill:#000000"
   inkscape:connector-curvature="0"
   id="path83"
   d="m 483.633,205.926 c 0,1.085 -0.145,2.075 -0.441,2.979 -0.299,0.902 -0.75,1.687 -1.355,2.358 -0.603,0.671 -1.353,1.192 -2.242,1.567 -0.888,0.372 -1.927,0.56 -3.111,0.56 h -3.559 c -0.359,0 -0.671,-0.096 -0.929,-0.292 -0.258,-0.188 -0.388,-0.52 -0.388,-0.983 0,-0.467 0.13,-0.792 0.388,-0.988 0.258,-0.192 0.569,-0.291 0.929,-0.291 h 3.559 c 1.546,0 2.672,-0.464 3.381,-1.391 0.711,-0.929 1.065,-2.103 1.065,-3.52 v -2.202 h -4.408 c -2.396,0 -4.171,-0.626 -5.316,-1.875 -1.148,-1.25 -1.721,-2.922 -1.721,-5.009 v -5.761 c 0,-1.083 0.147,-2.075 0.444,-2.979 0.298,-0.9 0.747,-1.687 1.354,-2.359 0.604,-0.667 1.353,-1.191 2.241,-1.564 0.89,-0.375 1.928,-0.561 3.113,-0.561 h 5.647 c 0.516,0 0.87,0.133 1.063,0.405 0.194,0.271 0.287,0.6 0.287,0.987 v 20.919 z m -6.997,-19.757 c -1.545,0 -2.674,0.464 -3.383,1.391 -0.708,0.929 -1.063,2.103 -1.063,3.52 v 5.761 c 0,1.367 0.336,2.429 1.008,3.188 0.668,0.761 1.775,1.142 3.323,1.142 h 4.408 v -15.002 h -4.293 z" />
			</g>
			<path
   style="fill:#000000"
   inkscape:connector-curvature="0"
   id="path85"
   d="m 580.267,235.111 c -0.178,0.008 -4.4,0.38 -8.977,1.069 -3.763,0.563 -5.815,0.467 -7.176,0.287 -2.874,-0.491 -4.815,-1.625 -5.492,-3.445 -2.331,-6.269 11.164,-18.246 30.147,-26.749 1.993,-0.892 3.958,-1.709 5.897,-2.453 -3.38,1.078 -6.878,2.342 -10.438,3.792 -21.322,8.678 -36.613,20.604 -34.159,26.641 1.238,3.043 6.753,4.003 14.652,3.101 0.014,-0.004 0.033,-0.004 0.048,-0.004 4.595,-0.431 10.096,-1.572 13.504,-1.296 3.319,0.41 5.563,1.581 6.3,3.564 2.329,6.27 -11.168,18.245 -30.149,26.751 -1.986,0.891 -3.958,1.71 -5.896,2.45 3.38,-1.072 6.878,-2.344 10.439,-3.79 21.321,-8.675 36.612,-20.604 34.157,-26.643 -1.139,-2.804 -5.923,-3.841 -12.857,-3.275 z" />
		</g>
	</g>


</svg>